<svg xmlns="http://www.w3.org/2000/svg" width="45" height="45" viewBox="0 0 45 45">
  <g id="그룹_774" data-name="그룹 774" transform="translate(-633 -4214)">
    <g id="그룹_718" data-name="그룹 718" transform="translate(642 4220)">
      <path id="패스_355" data-name="패스 355" d="M28.129,43.065H13.165a5.739,5.739,0,0,1-5.732-5.733V24.971a.852.852,0,0,1,.852-.852H33.009a.852.852,0,0,1,.852.852V37.332a5.739,5.739,0,0,1-5.732,5.733M9.137,25.823V37.332a4.033,4.033,0,0,0,4.028,4.028H28.129a4.033,4.033,0,0,0,4.028-4.028V25.823Z" transform="translate(-7.433 -13.982)" fill="#3e3e3e"/>
      <path id="패스_356" data-name="패스 356" d="M31.579,11.575a.852.852,0,0,1-.666-1.383L37.642,1.74a4.61,4.61,0,1,1,7.214,5.742l-3,3.772a.852.852,0,0,1-1.334-1.062l3-3.772A2.906,2.906,0,1,0,38.976,2.8l-6.729,8.453a.85.85,0,0,1-.667.321" transform="translate(-20.938 0)" fill="#3e3e3e"/>
      <path id="패스_357" data-name="패스 357" d="M37.7,45.793a.852.852,0,0,1-.852-.852V39.417a.852.852,0,1,1,1.7,0v5.524a.852.852,0,0,1-.852.852" transform="translate(-24.485 -22.357)" fill="#6ab4db"/>
      <path id="패스_358" data-name="패스 358" d="M36.65,46.841H31.126a.852.852,0,1,1,0-1.7H36.65a.852.852,0,0,1,0,1.7" transform="translate(-20.674 -26.167)" fill="#6ab4db"/>
      <path id="패스_359" data-name="패스 359" d="M35.111,75.033H21.463a.852.852,0,0,1,0-1.7H35.111a.852.852,0,0,1,0,1.7" transform="translate(-15.073 -42.511)" fill="#3e3e3e"/>
    </g>
    <rect id="사각형_1942" data-name="사각형 1942" width="45" height="45" transform="translate(633 4214)" fill="none"/>
  </g>
</svg>
