<svg xmlns="http://www.w3.org/2000/svg" width="45" height="45" viewBox="0 0 45 45">
  <g id="그룹_773" data-name="그룹 773" transform="translate(-633 -4262)">
    <g id="그룹_721" data-name="그룹 721" transform="translate(639 4268)">
      <g id="그룹_126" data-name="그룹 126" transform="translate(0 0)">
        <g id="그룹_139" data-name="그룹 139" transform="translate(0 0)">
          <path id="패스_370" data-name="패스 370" d="M32.421,9.5,23.188.263a.95.95,0,0,0-1.313,0,.928.928,0,0,0,0,1.312l1.253,1.253L18.222,7.736,15.366,4.881a.928.928,0,0,0-1.312,1.312l1.554,1.554L4.278,19.076a.933.933,0,0,0-.265.544l-1.075,8.76L.272,31.045a.928.928,0,0,0,0,1.312.951.951,0,0,0,1.312,0L4.25,29.691l8.76-1.076a.928.928,0,0,0,.543-.265L24.882,17.021l1.554,1.554a.95.95,0,0,0,1.312,0,.928.928,0,0,0,0-1.313l-2.8-2.8,4.907-4.907,1.253,1.253a.95.95,0,0,0,1.312,0,.928.928,0,0,0,0-1.313M12.466,26.812l-7.58.931.931-7.58,11.1-11.1,6.65,6.65ZM23.636,13.15l-4.1-4.1,4.907-4.907,4.1,4.1Z" transform="translate(0 0)" fill="#3e3e3e"/>
          <path id="패스_371" data-name="패스 371" d="M17.384,41.909,20.7,45.23l1.271-1.271-3.321-3.321" transform="translate(-9.979 -23.327)" fill="#6ab4db"/>
          <path id="패스_372" data-name="패스 372" d="M23.855,35.437l3.321,3.321,1.271-1.271-3.321-3.321" transform="translate(-13.693 -19.612)" fill="#6ab4db"/>
        </g>
      </g>
    </g>
    <rect id="사각형_1943" data-name="사각형 1943" width="45" height="45" transform="translate(633 4262)" fill="none"/>
  </g>
</svg>
