<svg xmlns="http://www.w3.org/2000/svg" width="45" height="45" viewBox="0 0 45 45">
  <g id="그룹_772" data-name="그룹 772" transform="translate(-633 -4307)">
    <g id="그룹_719" data-name="그룹 719" transform="translate(640 4314)">
      <path id="패스_360" data-name="패스 360" d="M2.525,374.8a.872.872,0,0,1-.617-1.489l16.3-16.3a.873.873,0,0,1,1.234,1.235l-16.3,16.3a.873.873,0,0,1-.617.255" transform="translate(-1.653 -343.511)" fill="#6ab4db"/>
      <path id="패스_361" data-name="패스 361" d="M40.876,348.043a.871.871,0,0,1-.617-.254l-3.5-3.5a.872.872,0,0,1,0-1.233l6.843-6.843a.873.873,0,0,1,1.223-.011.951.951,0,0,1,.279.542,3.091,3.091,0,0,0,2.71,2.749.873.873,0,0,1,.5,1.482l-6.819,6.818a.873.873,0,0,1-.617.254m-2.27-4.375,2.27,2.27,5.176-5.175a4.8,4.8,0,0,1-2.253-2.288Z" transform="translate(-21.854 -331.452)" fill="#3e3e3e"/>
      <path id="패스_362" data-name="패스 362" d="M57.675,335.054a5.016,5.016,0,0,1-.671-.045,4.915,4.915,0,0,1-2.826-8.329,4.914,4.914,0,1,1,6.949,6.949,4.855,4.855,0,0,1-3.452,1.425m-.022-8.068a3.168,3.168,0,1,0,2.24.928,3.159,3.159,0,0,0-2.24-.928" transform="translate(-31.278 -325.243)" fill="#3e3e3e"/>
    </g>
    <rect id="사각형_1944" data-name="사각형 1944" width="45" height="45" transform="translate(633 4307)" fill="none"/>
  </g>
</svg>
