<svg xmlns="http://www.w3.org/2000/svg" width="45" height="45" viewBox="0 0 45 45">
  <g id="그룹_771" data-name="그룹 771" transform="translate(-633 -4356)">
    <g id="그룹_720" data-name="그룹 720" transform="translate(641 4362)">
      <path id="패스_363" data-name="패스 363" d="M38.308,477.287c0-.2,0-.4,0-.6v-.25c0-1.4-.238-1.686-1.576-1.821a5.638,5.638,0,0,0-.111-.793,2.474,2.474,0,0,1,.046-1.59,1.532,1.532,0,0,0,.06-.8c0-.05-.009-.1-.013-.15.079-.006.141-.009.2-.011a1.257,1.257,0,0,0,1.391-1.4v-.093c0-.443.01-.9,0-1.352a1.233,1.233,0,0,0-1.251-1.257l-.341-.017v-.113c0-.214,0-.42,0-.626a1.771,1.771,0,0,0-1.906-1.905c-.344,0-.687,0-1.025,0h-.253V463.3c.062-.006.117-.01.171-.011.97-.032,1.406-.472,1.416-1.426,0-.109,0-.219,0-.328a5.562,5.562,0,0,1,.007-.564,1.728,1.728,0,0,0-.337-1.4,1.648,1.648,0,0,0-1.265-.4v-.031c0-.117,0-.242,0-.367a1.722,1.722,0,0,0-1.717-1.7c-2.117-.019-4.3-.019-6.494,0a1.778,1.778,0,0,0-1.737,1.694c-.012.13-.016.259-.021.4v.028c-.1,0-.2,0-.286,0a1.249,1.249,0,0,0-1.285,1.233c-.027.515-.028,1.059,0,1.614a1.263,1.263,0,0,0,1.268,1.25l.3.015.017.1c0,.191,0,.37,0,.548a1.829,1.829,0,0,0,1.994,2c.333,0,.664,0,.989,0h.246l-.053,1.215-.159.008a1.289,1.289,0,0,0-1.419,1.437v.067c-.005.416-.011.847,0,1.272a1.271,1.271,0,0,0,1.31,1.323c.072,0,.143,0,.21,0l.333,2.041-.32,1.309c-.072,0-.152,0-.232,0a1.26,1.26,0,0,0-1.295,1.223,14.939,14.939,0,0,0,0,1.669,1.258,1.258,0,0,0,1.255,1.2c.105.005.211,0,.335,0l.007,1.755h-.272c-.348,0-.7,0-1.059,0a1.793,1.793,0,0,0-1.87,1.788c-.006.11-.005.221,0,.331-.807.06-1.524.279-1.584,1.217a14.146,14.146,0,0,0,0,1.67,1.257,1.257,0,0,0,1.24,1.219c.108.007.215.005.342,0h0v.158c0,.242-.005.471,0,.7a1.788,1.788,0,0,0,1.86,1.8q1.536.006,3.073.006,1.577,0,3.153-.005a1.76,1.76,0,0,0,1.866-1.836c0-.217,0-.434,0-.664v-.151c.065,0,.114-.007.163-.008,1-.027,1.428-.464,1.434-1.464l0-.267c0-.375.007-.75-.006-1.125a1.234,1.234,0,0,0-1.207-1.243c-.118-.008-.237-.013-.363-.019l-.042-.673h.3c.35,0,.688,0,1.026,0a1.768,1.768,0,0,0,1.89-1.867c0-.338,0-.676,0-1.018v-.3c.073-.006.133-.01.192-.012a1.259,1.259,0,0,0,1.4-1.439M32.078,487.47a.385.385,0,0,1-.456.463H25.457c-.319,0-.45-.141-.453-.485,0-.207,0-.414,0-.621s0-.4,0-.6c-.007-.734-.226-.947-.978-.953H23.44v-1.224h.108c.207,0,.407,0,.609,0a.858.858,0,0,0,.636-.212.822.822,0,0,0,.208-.619v-.154c.005-.573.008-.92.123-1.031s.469-.113,1.055-.113h5.208c.654,0,.687.034.688.71,0,1.327.081,1.407,1.382,1.418h.191v1.224h-.094c-.2,0-.4,0-.6,0a.776.776,0,0,0-.876.867l0,.308c0,.342,0,.683,0,1.024m3.195-7.482a.53.53,0,0,1-.1.385.536.536,0,0,1-.374.109H28.68a.5.5,0,0,1-.374-.119.565.565,0,0,1-.11-.389l0-.543c0-.42,0-.84,0-1.26a.872.872,0,0,0-.222-.677.882.882,0,0,0-.684-.209c-.187.007-.375.005-.571,0h-.095v-1.226h.091c.2,0,.4,0,.6,0a.886.886,0,0,0,.678-.22.819.819,0,0,0,.2-.64c-.035-.7.006-1.069.132-1.2.1-.106.342-.1.7-.082.157.006.336.013.533.011,1.326-.011,2.651-.008,3.977-.005l1.124,0c.3,0,.449.03.517.1s.1.227.093.525l0,.149c-.007.57-.011.915.222,1.141s.632.246,1.25.216a.973.973,0,0,1,.1,0v1.22h-.107c-.209,0-.411,0-.613,0a.835.835,0,0,0-.622.209.85.85,0,0,0-.229.626c-.006.557-.011,1.214,0,1.865M27.987,468.4a.815.815,0,0,0,.208-.6v-.238c0-.38,0-.761,0-1.141.005-.334.141-.471.467-.471h0l6.165,0a.463.463,0,0,1,.338.1.515.515,0,0,1,.1.374c-.008.409-.006.819,0,1.228.01.686.264.944.938.954.179,0,.358,0,.546,0h.082v1.222H36.8c-.176,0-.354,0-.532,0-.746,0-.987.25-.993,1.008v.092c0,.36-.006.722,0,1.083a.511.511,0,0,1-.1.373.463.463,0,0,1-.339.1H28.665c-.327,0-.463-.137-.468-.471-.007-.441-.01-.882,0-1.322a.865.865,0,0,0-.216-.659.829.829,0,0,0-.609-.211h-.04c-.188,0-.376,0-.591,0H26.6v-1.225h.793a.808.808,0,0,0,.595-.21m-3.2-6.341a.837.837,0,0,0-.613-.211h-.043c-.189.005-.378,0-.583,0H23.43v-1.224h.51c.871,0,1.06-.195,1.062-1.084l0-.2c0-.142,0-.285.006-.427.02-.292.146-.417.421-.417q3.108,0,6.218,0a.366.366,0,0,1,.43.433c0,.126,0,.252,0,.379s0,.279,0,.418a.909.909,0,0,0,.234.688.87.87,0,0,0,.671.211c.187-.007.375,0,.571,0h.095v1.225h-.1c-.214,0-.428,0-.644,0a.746.746,0,0,0-.825.8c-.014.5-.014.938,0,1.34a.552.552,0,0,1-.1.408.542.542,0,0,1-.394.115h0q-3.03-.009-6.06,0h0a.548.548,0,0,1-.4-.117.571.571,0,0,1-.117-.412c0-.178,0-.356,0-.533,0-.247,0-.494,0-.741a.854.854,0,0,0-.215-.651" transform="translate(-15.039 -457.054)" fill="#6ab4db"/>
      <path id="패스_364" data-name="패스 364" d="M63.322,474.754a12.676,12.676,0,0,0-3.711-5.834,1.018,1.018,0,0,0-.7-.309.71.71,0,0,0-.489.279c-.372.443-.061.8.145,1.035l.057.065c.2.235.408.466.616.7a12.757,12.757,0,0,1,1.59,2.026,14.314,14.314,0,0,1,1.661,9.51,12,12,0,0,1-3.937,7.688.8.8,0,0,0-.31.543.688.688,0,0,0,.194.507.709.709,0,0,0,.495.26h.032a.8.8,0,0,0,.538-.237l.17-.155a12.054,12.054,0,0,0,1.093-1.092,15.028,15.028,0,0,0,3.361-9.721,17.768,17.768,0,0,0-.8-5.265" transform="translate(-36.078 -463.753)" fill="#3e3e3e"/>
      <path id="패스_365" data-name="패스 365" d="M10.267,477.17c1.746.456,3.457.885,5.084,1.273a1.225,1.225,0,0,0,.284.034,1.112,1.112,0,0,0,.7-.245,1.494,1.494,0,0,0,.515-1.2v-.046l-.021-.04c-.011-.023-.024-.055-.04-.093a1.552,1.552,0,0,0-.288-.5c-1.206-1.27-2.412-2.517-3.587-3.705a1.28,1.28,0,0,0-1.057-.408,1.235,1.235,0,0,0-.912.61c-.536.865-1.03,1.717-1.467,2.533a1.233,1.233,0,0,0-.054,1.081,1.252,1.252,0,0,0,.843.706m.612-1.328,1.169-2.037L15,476.871Z" transform="translate(-7.72 -465.854)" fill="#3e3e3e"/>
      <path id="패스_366" data-name="패스 366" d="M12.2,493a1.119,1.119,0,0,0,.792-1.17,1.153,1.153,0,0,0-.814-1.146c-.27-.089-.541-.175-.815-.253l-.746-.213c-1.091-.313-2.183-.625-3.276-.928A1.492,1.492,0,0,0,6,489.428a1.479,1.479,0,0,0-.493,1.243c0,.286,0,.573,0,.859v.311c0,.144,0,.288,0,.432,0,.319-.006.639.007.957a1.36,1.36,0,0,0,.505,1.071,1.12,1.12,0,0,0,.676.214,1.456,1.456,0,0,0,.364-.048c1.531-.4,3.073-.851,4.563-1.292Zm-1.139-1.151L6.977,493.02v-2.334Z" transform="translate(-5.507 -475.692)" fill="#3e3e3e"/>
      <path id="패스_367" data-name="패스 367" d="M16.793,505.58c.04-.079.08-.159.124-.235l.03-.052-.005-.06a1.451,1.451,0,0,0-.575-1.059,1.279,1.279,0,0,0-1.062-.192c-1.588.386-3.246.8-4.928,1.241a1.316,1.316,0,0,0-.941.725,1.391,1.391,0,0,0,.141,1.229c.453.808.878,1.547,1.3,2.257a1.364,1.364,0,0,0,.986.736,1.048,1.048,0,0,0,.13.008,1.45,1.45,0,0,0,1.02-.5c1.363-1.389,2.454-2.519,3.437-3.556a2.193,2.193,0,0,0,.344-.545m-1.777-.041L12.063,508.6l-1.169-2.032Z" transform="translate(-7.734 -484.236)" fill="#3e3e3e"/>
    </g>
    <rect id="사각형_1945" data-name="사각형 1945" width="45" height="45" transform="translate(633 4356)" fill="none"/>
  </g>
</svg>
