<svg xmlns="http://www.w3.org/2000/svg" width="45" height="45" viewBox="0 0 45 45">
  <g id="그룹_770" data-name="그룹 770" transform="translate(-1064 -4214)">
    <g id="그룹_724" data-name="그룹 724" transform="translate(1075 4220)">
      <path id="패스_343" data-name="패스 343" d="M42.752,13.1A2.079,2.079,0,0,0,42.7,8.951c-.5-.019-1.008,0-1.511,0h-.063c-.5,0-1.008-.016-1.511,0a2.079,2.079,0,0,0-.053,4.154q.8.03,1.595.029t1.595-.029m-.919-2.876c.554.008,1.151-.21,1.475.4a1,1,0,0,1,0,.809c-.323.609-.922.384-1.472.412Zm-1.351,1.618c-.55-.028-1.149.2-1.472-.412a1,1,0,0,1,0-.809c.324-.607.921-.388,1.474-.4Z" transform="translate(-30.103 -4.669)" fill="#3e3e3e"/>
      <path id="패스_344" data-name="패스 344" d="M43.24,21.326A5.918,5.918,0,0,0,38.094,17.1a.791.791,0,0,1-.5-.381,9.881,9.881,0,0,1-1.278-4.305,1.01,1.01,0,0,1,.464-.991A6.325,6.325,0,0,0,39,4.337,6.39,6.39,0,0,0,32.962,0h-.016a6.39,6.39,0,0,0-6.035,4.337,6.326,6.326,0,0,0,2.215,7.086,1.009,1.009,0,0,1,.464.991,9.875,9.875,0,0,1-1.278,4.305.792.792,0,0,1-.5.381,5.918,5.918,0,0,0-5.146,4.225,13.594,13.594,0,0,0,.1,9.259,2.376,2.376,0,0,0,2.369,1.674q3.909.019,7.819.019t7.819-.019a2.376,2.376,0,0,0,2.369-1.674,13.592,13.592,0,0,0,.1-9.259M27.86,6.359a5.086,5.086,0,0,1,5.075-5.095h.038a5.085,5.085,0,0,1,5.075,5.095,5.14,5.14,0,0,1-5.091,5.1h0a5.141,5.141,0,0,1-5.092-5.1m1.425,11.284A12.218,12.218,0,0,0,30.832,12.7a1.683,1.683,0,0,1,.079-.289,7.023,7.023,0,0,0,4.087,0,1.674,1.674,0,0,1,.078.289,12.21,12.21,0,0,0,1.547,4.946,19.96,19.96,0,0,1,1.167,2.641A5.687,5.687,0,0,1,37.8,24.41c-.073.176-.285.406-.444.415-.75.043-1.5.02-2.126.02V22.608c0-.735,0-1.471,0-2.206a2.281,2.281,0,1,0-4.545,0c0,.735,0,1.471,0,2.206v2.237c-.622,0-1.376.024-2.126-.02-.159-.01-.372-.239-.444-.415a5.687,5.687,0,0,1,.008-4.125,20.022,20.022,0,0,1,1.167-2.641m3.669,4.723h1c0,.478.024,1-.006,1.517a.966.966,0,0,1-.966.957h-.065a.965.965,0,0,1-.965-.957c-.03-.518-.007-1.04-.007-1.517Zm-1-2.218a1.038,1.038,0,0,1,.98-.959h.045a1.037,1.037,0,0,1,.98.959,1.016,1.016,0,0,1-.973,1.022h-.059a1.017,1.017,0,0,1-.973-1.022M34.3,30.955H31.6c-.107-1.339.375-2.077,1.33-2.084h.04c.956.006,1.438.745,1.33,2.084m7.839-1.319a1.544,1.544,0,0,1-1.8,1.371c-1.551,0-3.1,0-4.694,0-.195-2.337-1.062-3.408-2.691-3.4s-2.5,1.064-2.692,3.4c-1.592,0-3.143,0-4.694,0a1.543,1.543,0,0,1-1.8-1.371,14.156,14.156,0,0,1-.513-5.3A7.885,7.885,0,0,1,24.9,19.921a4,4,0,0,1,2.507-1.447l.633-1.466-.633,1.466a8.471,8.471,0,0,0-.534,6.334c-.238.022-.492-.027-.639.076-.212.149-.48.41-.476.618s.305.418.508.588c.075.064.244.02.37.02H39.273c.126,0,.294.043.369-.02.2-.171.5-.386.508-.588s-.264-.47-.475-.618c-.147-.1-.4-.054-.639-.076a8.474,8.474,0,0,0-.534-6.334l-.634-1.466.634,1.466a4,4,0,0,1,2.506,1.447,7.881,7.881,0,0,1,1.647,4.417,14.145,14.145,0,0,1-.513,5.3" transform="translate(-21.899 0)" fill="#3e3e3e"/>
      <path id="패스_345" data-name="패스 345" d="M42.491,42.019a2.329,2.329,0,1,1,2.33-2.329,2.332,2.332,0,0,1-2.33,2.329m0-3.225a.9.9,0,1,0,.9.9.9.9,0,0,0-.9-.9" transform="translate(-31.436 -19.51)" fill="#6ab4db"/>
    </g>
    <rect id="사각형_1938" data-name="사각형 1938" width="45" height="45" transform="translate(1064 4214)" fill="none"/>
  </g>
</svg>
