<svg xmlns="http://www.w3.org/2000/svg" width="45" height="45" viewBox="0 0 45 45">
  <g id="그룹_769" data-name="그룹 769" transform="translate(-1064 -4262)">
    <g id="그룹_722" data-name="그룹 722" transform="translate(1065 4268)">
      <path id="패스_332" data-name="패스 332" d="M35.71,153.524a4.191,4.191,0,1,1,4.192-4.192,4.2,4.2,0,0,1-4.192,4.192m0-7.089a2.9,2.9,0,1,0,2.9,2.9,2.9,2.9,0,0,0-2.9-2.9" transform="translate(-16.459 -145.141)" fill="#3e3e3e"/>
      <path id="패스_333" data-name="패스 333" d="M4.192,202.831a4.192,4.192,0,1,1,4.193-4.192,4.2,4.2,0,0,1-4.193,4.192m0-7.089a2.9,2.9,0,1,0,2.9,2.9,2.9,2.9,0,0,0-2.9-2.9" transform="translate(0 -170.89)" fill="#3e3e3e"/>
      <path id="패스_334" data-name="패스 334" d="M36.564,196.276h-6.5a.647.647,0,0,1-.647-.647v-6.642a.647.647,0,0,1,.647-.647h6.5a.647.647,0,0,1,.647.647v6.642a.647.647,0,0,1-.647.647m-5.85-1.294h5.2v-5.347h-5.2Z" transform="translate(-15.364 -167.701)" fill="#3e3e3e"/>
      <path id="패스_335" data-name="패스 335" d="M44.325,168.331l-6.572-6.569a4.517,4.517,0,0,0-3.474-1.634h-.333a4.533,4.533,0,0,0-4.527,4.528v9.6a.647.647,0,0,0,.647.647h5.85v-.647c0-.029.009-.17.013-.2a.33.33,0,0,1-.013-.118,3.2,3.2,0,0,1,.031-.414c0,.028-.011.055-.014.084h-5.22v-8.952a3.237,3.237,0,0,1,3.233-3.234h.333a3.275,3.275,0,0,1,2.521,1.212l6.611,6.611a1.278,1.278,0,0,1,0,1.766,1.253,1.253,0,0,1-1.823-.058l-.151-.151-2.82-2.82v0L36.838,166.2a.646.646,0,0,0-.914.914l1.589,1.588v2.484l-.015.01a3.21,3.21,0,0,1,.421-.206,3.143,3.143,0,0,1,.888-.217V170l.516.516.247.246,1.162,1.162c.051.051.1.1.159.144a2.4,2.4,0,0,0,.308.221l.067.04a2.5,2.5,0,0,0,.338.162l.059.021a2.515,2.515,0,0,0,.377.105l.026,0a2.5,2.5,0,0,0,.383.039l.047,0a2.6,2.6,0,0,0,.368-.027l.1-.015a2.559,2.559,0,0,0,.333-.085c.043-.014.086-.03.128-.046a2.569,2.569,0,0,0,.309-.141c.039-.021.077-.047.115-.07a2.729,2.729,0,0,0,.264-.184,2.894,2.894,0,0,0,.278-.246,2.564,2.564,0,0,0-.065-3.517" transform="translate(-15.364 -152.967)" fill="#3e3e3e"/>
      <path id="패스_336" data-name="패스 336" d="M55.652,182.385H52.076a2.528,2.528,0,0,1-.585,1.086,2.969,2.969,0,0,1-.278.246c.018-.014.037-.023.054-.038h4.384a1.881,1.881,0,0,1,0,3.762H48.135a.647.647,0,0,0-.647.647v3.785H44.312v-5.995c0-.022,0-.293,0-.317a1.92,1.92,0,0,1,.022-.284,1.824,1.824,0,0,1,.109-.4,1.878,1.878,0,0,1,.8-.93,1.9,1.9,0,0,1,.258-.126l0,0a1.856,1.856,0,0,1,.688-.137h1.782l.018.013c-.054-.046-.108-.093-.159-.144l-1.162-1.162h-.478c-.1,0-.19.005-.284.014a3.14,3.14,0,0,0-.888.217,3.221,3.221,0,0,0-.421.206c-.026.015-.05.034-.076.05a3.1,3.1,0,0,0-.283.2c-.04.031-.076.063-.114.1-.073.062-.143.128-.209.2-.036.036-.071.073-.105.111a2.974,2.974,0,0,0-.189.238c-.024.033-.051.065-.074.1a3.172,3.172,0,0,0-.209.362c-.015.032-.027.065-.041.1a3.121,3.121,0,0,0-.118.3c-.016.049-.029.1-.043.149q-.038.136-.064.276c-.01.052-.019.1-.026.157a3.213,3.213,0,0,0-.031.414.329.329,0,0,0,.013.118c0,.03-.013.17-.013.2v6.642a.647.647,0,0,0,.647.647h4.47a.647.647,0,0,0,.647-.647v-3.785h6.87a3.175,3.175,0,0,0,0-6.349" transform="translate(-22.465 -164.59)" fill="#6ab4db"/>
      <path id="패스_337" data-name="패스 337" d="M61.887,208.59H42.824a.647.647,0,0,1-.647-.647v-5.055a.647.647,0,0,1,.647-.647H61.887a3.175,3.175,0,0,1,0,6.349M43.471,207.3H61.887a1.88,1.88,0,1,0,0-3.761H43.471Z" transform="translate(-22.025 -174.959)" fill="#3e3e3e"/>
      <path id="패스_338" data-name="패스 338" d="M27.885,208.591H16.746a3.175,3.175,0,1,1,0-6.349h11.14a.647.647,0,0,1,.647.647v5.055a.647.647,0,0,1-.647.647m-11.14-5.055a1.881,1.881,0,1,0,0,3.761H27.239v-3.761Z" transform="translate(-7.087 -174.96)" fill="#3e3e3e"/>
    </g>
    <rect id="사각형_1939" data-name="사각형 1939" width="45" height="45" transform="translate(1064 4262)" fill="none"/>
  </g>
</svg>
