<svg xmlns="http://www.w3.org/2000/svg" width="45" height="45" viewBox="0 0 45 45">
  <g id="그룹_768" data-name="그룹 768" transform="translate(-1064 -4311)">
    <g id="그룹_725" data-name="그룹 725" transform="translate(1077 4316)">
      <path id="패스_346" data-name="패스 346" d="M41.549,304.3c-1.36-.029-1.348-.029-1.308-1.432.01-.349.1-.45.46-.464a1.312,1.312,0,0,0,1.43-1.447c.018-1.408.02-2.817,0-4.225a1.337,1.337,0,0,0-1.453-1.44q-6-.012-11.99,0a1.348,1.348,0,0,0-1.484,1.479q-.024,2.078,0,4.156a1.342,1.342,0,0,0,1.4,1.49c.151.012.414-.068.43.089a5.507,5.507,0,0,1,.019,1.62c-.079.39-.547.159-.825.162-2.094.023-3.04.952-3.042,3.037q0,4.94,0,9.88c0,3.429-.012,6.859.006,10.289a2.516,2.516,0,0,0,2.683,2.689q6.813.009,13.626,0a2.445,2.445,0,0,0,2.631-2.454q.051-10.493,0-20.986a2.453,2.453,0,0,0-2.577-2.443m-12.576-2.963c-.535.005-.715-.147-.7-.693.038-1.2.031-2.408,0-3.611-.012-.5.139-.672.656-.665,1.93.028,3.861.011,5.792.011,1.862,0,3.725.018,5.587-.011.546-.009.769.119.747.713-.044,1.179-.046,2.363,0,3.543.023.6-.2.754-.748.71-.452-.037-.908-.009-1.363-.007-.37,0-.707.091-.728.533-.02.4.248.567.617.552.3-.013.308.153.325.382.111,1.507.116,1.506-1.369,1.506-2.339,0-4.679-.011-7.018.01-.446,0-.628-.065-.617-.574.028-1.319,0-1.319,1.305-1.319,1.658,0,3.316,0,4.974,0,.414,0,.969.112.946-.551-.022-.633-.567-.532-.986-.533-2.475-.006-4.951-.017-7.427.008m-.8,9.989c4.724.012,9.449.022,14.173-.009.628,0,.737.183.732.76q-.04,5.316,0,10.631c0,.583-.172.7-.72.695-4.77-.022-9.539-.013-14.309-.011a2.733,2.733,0,0,0-.675.048.482.482,0,0,0-.362.577.467.467,0,0,0,.435.449,5.439,5.439,0,0,0,.612.015c4.77,0,9.54.011,14.31-.012.567,0,.744.145.707.713-.05.769,0,1.544-.016,2.316a1.449,1.449,0,0,1-1.611,1.6q-6.78.007-13.56,0c-1.089,0-1.611-.563-1.613-1.733q-.009-5.077,0-10.154,0-4.942,0-9.882c0-1.473.472-1.934,1.966-1.934q6.507,0,13.015,0c1.294,0,1.8.511,1.807,1.818,0,.795-.039,1.593.014,2.385.039.57-.182.664-.693.662q-7.12-.026-14.241,0c-.428,0-1.1-.231-1.113.509-.009.777.687.564,1.141.565" transform="translate(-25.18 -295.284)" fill="#3e3e3e"/>
      <path id="패스_347" data-name="패스 347" d="M39.974,341.363a.874.874,0,0,0,.831.095,6.245,6.245,0,0,0,3.58-4.812.541.541,0,0,0-1.048-.255,6.4,6.4,0,0,0-.171.657,5.106,5.106,0,0,1-1.959,2.93,1.056,1.056,0,0,1-1.435.009c-1.648-1.163-2.047-2.907-2.322-4.728-.047-.312.184-.323.378-.352a3.307,3.307,0,0,0,1.36-.4,2,2,0,0,1,2.567-.008.815.815,0,0,0,.513.136.489.489,0,0,0,.483-.658,4.74,4.74,0,0,0-2.558-1.243,1.492,1.492,0,0,0-.229.144,5.916,5.916,0,0,1-3.044,1.047.622.622,0,0,0-.659.715c.085.561.157,1.147.263,1.726a6.405,6.405,0,0,0,3.451,4.995" transform="translate(-30.966 -314.834)" fill="#6ab4db"/>
      <path id="패스_348" data-name="패스 348" d="M43.474,337.077c-.342.357-.55.422-.884.01-.215-.266-.424-.609-.849-.6a.449.449,0,0,0-.444.26.562.562,0,0,0,.117.685c.4.4.8.8,1.2,1.2a.537.537,0,0,0,.839-.011q2.071-2.062,4.132-4.135a.516.516,0,0,0-.027-.87c-.328-.247-.589-.053-.828.187-1.088,1.091-2.194,2.165-3.258,3.279" transform="translate(-33.562 -315.239)" fill="#6ab4db"/>
    </g>
    <rect id="사각형_1940" data-name="사각형 1940" width="45" height="45" transform="translate(1064 4311)" fill="none"/>
  </g>
</svg>
