<svg xmlns="http://www.w3.org/2000/svg" width="45" height="45" viewBox="0 0 45 45">
  <g id="그룹_767" data-name="그룹 767" transform="translate(-1064 -4352)">
    <g id="그룹_723" data-name="그룹 723" transform="translate(1069 4358)">
      <path id="패스_339" data-name="패스 339" d="M60.082,484.943a1.319,1.319,0,0,1,.081.135l.021-.007c-.046-.06-.083-.106-.1-.128" transform="translate(-35.341 -467.333)" fill="#3e3e3e"/>
      <path id="패스_340" data-name="패스 340" d="M42.255,475.082a2.851,2.851,0,0,1,.8-3.741c.508-.469.473-.842-.137-1.171-.582-.314-1.193-.575-1.768-.9a2.82,2.82,0,0,1-1.4-3.208c.2-.879.133-1.05-.752-1.245-1.078-.237-2.172-.4-3.293-.6a1.858,1.858,0,0,1,1.754-.66c.317.033.63.107.947.146.772.092,1.005-.2.777-.945a2.037,2.037,0,0,1,1.091-2.634,3.28,3.28,0,0,0,.607-.312,10.012,10.012,0,0,0,.745-.777,4.015,4.015,0,0,0-.77-.669,2.035,2.035,0,0,1-1.108-2.733c.18-.469.443-.909.578-1.389a1.063,1.063,0,0,0-.1-.847c-.112-.134-.556-.1-.792,0-.735.31-1.429.716-2.162,1.032a3.922,3.922,0,0,1-3.5-.163c-1.285-.67-1.43-.6-1.608.862-.011.09-.015.182-.026.273a4.863,4.863,0,0,1-1.608,3.007,1.869,1.869,0,0,1-2.424.065c-.441-.244-.665-.969-.867-1.522a2.466,2.466,0,0,1,.029-1.084c.072-.566.185-1.126.276-1.69.124-.767-.139-1.028-.9-.892a2.487,2.487,0,0,1-3.083-2.057c-.224-1-.419-1.112-1.34-.648a2.616,2.616,0,0,1-3.009-.28c-.9-.7-1.809-1.4-2.751-2.044a2.376,2.376,0,0,0-.918-.165,2.548,2.548,0,0,0-.11.87,9.084,9.084,0,0,0,.594,1.82c.9,1.889.743,3.507-1.006,4.857-.507.392-.389.829.2,1.108.536.255,1.093.462,1.632.71a2.52,2.52,0,0,1,1.568,2.822c-.212,1.726-.212,1.743,1.512,1.733a2.393,2.393,0,0,1,2.253,1.042,20.209,20.209,0,0,1,1.054,2.369c-1.815.263-3.355.091-4.5-1.386a9.664,9.664,0,0,0-1.21-1.212c-.467-.419-.9-.262-1.037.356-.057.267-.069.544-.112.815a2.53,2.53,0,0,1-1.878,2.217,4.318,4.318,0,0,1-1.741-.03c-.7-.113-.957.042-.926.74a3.586,3.586,0,0,0,.049.546c.462,2.325.044,3.766-2.832,4.43-.83.192-.93.478-.51,1.219a4.837,4.837,0,0,1,.521,3.315c-.227,1.3-.5,2.6-.7,3.91-.042.281.162.6.253.9.293-.109.675-.136.865-.34.808-.87,1.574-1.782,2.329-2.7a2.073,2.073,0,0,1,2.135-.757c.719.13,1.444.225,2.167.328.7.1.936-.1.956-.789.011-.366-.011-.733.008-1.1a1.755,1.755,0,0,1,2.092-1.713c.136.02.269.05.406.066.8.094.992-.067,1.017-.863a9.606,9.606,0,0,1,.044-1.164,1.488,1.488,0,0,1,2.176-1.151,2.821,2.821,0,0,0,3.092-.341c.131-.1.262-.2.406-.315a4.122,4.122,0,0,1-.487-1.791,1.746,1.746,0,1,1,0-.345,4.123,4.123,0,0,1,.533-1.874c-.559-.271-1.1-.517-1.626-.8a.931.931,0,0,1-.36-.443c-.22-.526-.409-1.065-.6-1.6a3.792,3.792,0,0,0-3.77-2.73c-.133,0-.265-.017-.452-.029.427-2.582-.86-4.039-3.233-4.829,1.936-1.651,1.645-3.58.882-5.624,1.591,1.21,3.117,2.393,5.246,1.442a3.84,3.84,0,0,0,3.837,2.792c-.214,1.369-.555,2.713.3,4l-1.291.738-3.07-4.085-.935.7c1,1.329,1.978,2.616,2.924,3.93a.992.992,0,0,1,.145.773,3.522,3.522,0,0,0,2.361,4.774l.315.1a4.143,4.143,0,0,1,2.937-1.219c.023,0,.045,0,.068,0,.061,0,.121.006.181.009l-.083-.019a3.953,3.953,0,0,1,.9-.606,6.956,6.956,0,0,0,4.679-4.341l-1.03-.519a5.791,5.791,0,0,1-3.429,3.518l-.708-2.542a5.422,5.422,0,0,0,2.757-4.23,15.433,15.433,0,0,0,2.69.318,14.761,14.761,0,0,0,2.6-.59,3.354,3.354,0,0,0,1.118,3.8,3.338,3.338,0,0,0-1.839,3.33,3.3,3.3,0,0,0-3.583,1.787c-.039.073-.129.168-.2.17a19.021,19.021,0,0,1-2.214.38,4.289,4.289,0,0,1,1.314,1.065,9.228,9.228,0,0,1,5.319.149c-.013,2.709.319,3.23,3.23,4.984-1.648,1.97-1.055,3.91.128,6.029-1.824-.608-3.374-.534-4.763.789-.954-2.589-2.765-3.572-5.479-2.944l-.4-2.268.354-.285a4.046,4.046,0,0,1-.547.181l-.071.019c-.063.015-.126.033-.19.045a3.389,3.389,0,0,1-.36.055l-.04,0c-.1.009-.191.014-.276.014-.041,0-.082.006-.123.006-.078,0-.155-.007-.233-.011a.84.84,0,0,1,.355.464c.175.779.289,1.572.417,2.361a.649.649,0,0,0,.808.622c.476-.061.95-.13,1.425-.194a2.637,2.637,0,0,1,2.871,1.516c.251.512.426,1.062.7,1.562a1.2,1.2,0,0,0,.634.608c.183.038.5-.254.656-.471a2.7,2.7,0,0,1,3.04-1.181c.623.145,1.234.344,1.861.455a.906.906,0,0,0,.73-.171.872.872,0,0,0,.036-.739c-.3-.786-.671-1.549-1.009-2.323m-27.576-3.163c.15.1.283.227.511.414,1.506-1.994,3.238-3.657,5.918-3.836.107.421.207.812.316,1.239a3.09,3.09,0,0,0-2.032,3.2c-2.53.178-3.064.71-3.561,3.387a10.91,10.91,0,0,0-3.307.074A10.376,10.376,0,0,0,9.919,478.3c.314-1.71.814-3.535-.18-5.387A4.518,4.518,0,0,0,12.655,471a4.6,4.6,0,0,0,.413-3.454,4.1,4.1,0,0,0,4.467-3.089c1.133,1.225,2.264,2.38,4.1,2.209l.067.184c-.225.157-.439.432-.675.453-2.953.258-5,1.92-6.777,4.374.117.065.281.14.429.24M27.6,464.338a2.337,2.337,0,0,1-2.318-2.376,2.3,2.3,0,0,1,2.322-2.284,2.335,2.335,0,0,1,2.336,2.357,2.375,2.375,0,0,1-2.34,2.3" transform="translate(-8.299 -448.085)" fill="#3e3e3e"/>
      <path id="패스_341" data-name="패스 341" d="M65.9,496.256c-1.356-1.188-2.667-2.352-4-3.491a1.334,1.334,0,0,1-.461-.646l0-.011a4.125,4.125,0,0,1-.708,1.714l.312-.25,4.083,3.561.774-.877" transform="translate(-35.681 -471.075)" fill="#3e3e3e"/>
      <path id="패스_342" data-name="패스 342" d="M52.325,483.509a4.161,4.161,0,0,0-.359-.384,4.022,4.022,0,0,0-.955-.681,4.115,4.115,0,0,0-1.655-.453c-.06,0-.12-.008-.181-.009-.023,0-.045,0-.068,0a4.153,4.153,0,0,0-4.146,3.984c0,.057-.009.113-.009.17s.007.117.009.175a4.136,4.136,0,0,0,3.913,3.967c.077,0,.154.012.233.012.042,0,.082,0,.123-.006.093,0,.185-.005.276-.014l.04,0c.122-.013.242-.032.36-.055.062-.013.125-.028.19-.045l.071-.019c.1-.029.213-.066.323-.107.074-.025.151-.043.223-.074a4.17,4.17,0,0,0,2.486-3.145l0-.03a4.077,4.077,0,0,0-.88-3.279m-6.091,2.623A2.855,2.855,0,0,1,51.015,484c-.258.451-.492.891-.764,1.3a.788.788,0,0,1-.443.269,1.867,1.867,0,0,0-1.356,1.447,5.856,5.856,0,0,1-.986,1.472,2.869,2.869,0,0,1-1.232-2.354m3.134,2.859c-.086.008-.172.013-.261.013a2.845,2.845,0,0,1-.48-.043,2.523,2.523,0,0,0,1.106-1.923c.007-.111.266-.271.425-.292a1.436,1.436,0,0,0,1.324-1.251c.025-.118.147-.221.294-.4a2.86,2.86,0,0,1,.194.85c.01.088,0,.172.006.258a2.874,2.874,0,0,1-2.609,2.793" transform="translate(-27.44 -465.784)" fill="#539091"/>
    </g>
    <rect id="사각형_1941" data-name="사각형 1941" width="45" height="45" transform="translate(1064 4352)" fill="none"/>
  </g>
</svg>
